<svg width="46" height="59" viewBox="0 0 46 59" fill="none" xmlns="http://www.w3.org/2000/svg">
<rect width="46" height="59" fill="black"/>
<path d="M29.0888 11.0909H38.5661V33.4545C38.5661 36.1136 37.9297 38.4148 36.657 40.358C35.3956 42.2898 33.6342 43.7841 31.3729 44.8409C29.1115 45.8864 26.4865 46.4091 23.4979 46.4091C20.4865 46.4091 17.8501 45.8864 15.5888 44.8409C13.3274 43.7841 11.5661 42.2898 10.3047 40.358C9.05469 38.4148 8.42969 36.1136 8.42969 33.4545V11.0909H17.907V32.6364C17.907 33.7159 18.1456 34.6818 18.6229 35.5341C19.1001 36.375 19.7592 37.0341 20.6001 37.5114C21.4524 37.9886 22.4183 38.2273 23.4979 38.2273C24.5888 38.2273 25.5547 37.9886 26.3956 37.5114C27.2365 37.0341 27.8956 36.375 28.3729 35.5341C28.8501 34.6818 29.0888 33.7159 29.0888 32.6364V11.0909Z" fill="white"/>
</svg>
