<svg width="146" height="48" viewBox="0 0 146 48" fill="none" xmlns="http://www.w3.org/2000/svg">
<path d="M20.9091 3.09091H30.3864V25.4545C30.3864 28.1136 29.75 30.4148 28.4773 32.358C27.2159 34.2898 25.4545 35.7841 23.1932 36.8409C20.9318 37.8864 18.3068 38.4091 15.3182 38.4091C12.3068 38.4091 9.67045 37.8864 7.40909 36.8409C5.14773 35.7841 3.38636 34.2898 2.125 32.358C0.875 30.4148 0.25 28.1136 0.25 25.4545V3.09091H9.72727V24.6364C9.72727 25.7159 9.96591 26.6818 10.4432 27.5341C10.9205 28.375 11.5795 29.0341 12.4205 29.5114C13.2727 29.9886 14.2386 30.2273 15.3182 30.2273C16.4091 30.2273 17.375 29.9886 18.2159 29.5114C19.0568 29.0341 19.7159 28.375 20.1932 27.5341C20.6705 26.6818 20.9091 25.7159 20.9091 24.6364V3.09091ZM35.027 47.8182V11.8182H44.3679V16.3864H44.5724C44.9134 15.5 45.4134 14.6875 46.0724 13.9489C46.7315 13.1989 47.5497 12.6023 48.527 12.1591C49.5043 11.7045 50.6406 11.4773 51.9361 11.4773C53.6634 11.4773 55.3054 11.9375 56.8622 12.858C58.4304 13.7784 59.7031 15.2273 60.6804 17.2045C61.669 19.1818 62.1634 21.75 62.1634 24.9091C62.1634 27.9318 61.6918 30.4375 60.7486 32.4261C59.8168 34.4148 58.5668 35.8977 56.9986 36.875C55.4418 37.8523 53.7315 38.3409 51.8679 38.3409C50.6406 38.3409 49.544 38.142 48.5781 37.7443C47.6236 37.3352 46.8054 36.7841 46.1236 36.0909C45.4531 35.3864 44.9361 34.5909 44.5724 33.7045H44.4361V47.8182H35.027ZM44.2315 24.9091C44.2315 26.1818 44.3963 27.2841 44.7259 28.2159C45.0668 29.1364 45.544 29.8523 46.1577 30.3636C46.7827 30.8636 47.527 31.1136 48.3906 31.1136C49.2543 31.1136 49.9872 30.8693 50.5895 30.3807C51.2031 29.8807 51.669 29.1705 51.9872 28.25C52.3168 27.3182 52.4815 26.2045 52.4815 24.9091C52.4815 23.6136 52.3168 22.5057 51.9872 21.5852C51.669 20.6534 51.2031 19.9432 50.5895 19.4545C49.9872 18.9545 49.2543 18.7045 48.3906 18.7045C47.527 18.7045 46.7827 18.9545 46.1577 19.4545C45.544 19.9432 45.0668 20.6534 44.7259 21.5852C44.3963 22.5057 44.2315 23.6136 44.2315 24.9091ZM81.7188 11.8182V18.6364H64.4688V11.8182H81.7188ZM67.8097 5.54545H77.2188V29.5795C77.2188 29.9432 77.2812 30.25 77.4062 30.5C77.5312 30.7386 77.7244 30.9205 77.9858 31.0455C78.2472 31.1591 78.5824 31.2159 78.9915 31.2159C79.2756 31.2159 79.6051 31.1818 79.9801 31.1136C80.3665 31.0455 80.6506 30.9886 80.8324 30.9432L82.196 37.5568C81.7756 37.6818 81.1733 37.8352 80.3892 38.017C79.6165 38.1989 78.696 38.3182 77.6278 38.375C75.4688 38.4886 73.6563 38.267 72.1903 37.7102C70.7244 37.142 69.6222 36.25 68.8835 35.0341C68.1449 33.8182 67.7869 32.2955 67.8097 30.4659V5.54545ZM85.5582 38V11.8182H94.9673V38H85.5582ZM90.2628 9.09091C88.9901 9.09091 87.8991 8.67045 86.9901 7.82955C86.081 6.98864 85.6264 5.97727 85.6264 4.79545C85.6264 3.61364 86.081 2.60227 86.9901 1.76136C87.8991 0.920454 88.9901 0.5 90.2628 0.5C91.5469 0.5 92.6378 0.920454 93.5355 1.76136C94.4446 2.60227 94.8991 3.61364 94.8991 4.79545C94.8991 5.97727 94.4446 6.98864 93.5355 7.82955C92.6378 8.67045 91.5469 9.09091 90.2628 9.09091ZM115.443 11.8182V18.6364H97.9205V11.8182H115.443ZM101.261 38V11.0682C101.261 8.90909 101.648 7.11932 102.42 5.69886C103.193 4.27841 104.284 3.21591 105.693 2.51136C107.102 1.80682 108.761 1.45454 110.67 1.45454C111.864 1.45454 113.023 1.54545 114.148 1.72727C115.284 1.90909 116.125 2.06818 116.67 2.20454L115.307 8.95455C114.966 8.85227 114.568 8.77273 114.114 8.71591C113.659 8.64773 113.261 8.61364 112.92 8.61364C112.034 8.61364 111.438 8.80114 111.131 9.17614C110.824 9.55114 110.67 10.0455 110.67 10.6591V38H101.261ZM124.801 47.8182C123.722 47.8182 122.693 47.733 121.716 47.5625C120.739 47.4034 119.881 47.1818 119.142 46.8977L121.188 40.2159C121.96 40.4886 122.665 40.6648 123.301 40.7443C123.949 40.8239 124.5 40.7784 124.955 40.608C125.42 40.4375 125.756 40.1136 125.96 39.6364L126.165 39.1591L116.96 11.8182H126.778L131.006 29.9545H131.278L135.574 11.8182H145.46L135.915 40.1818C135.438 41.625 134.744 42.9205 133.835 44.0682C132.938 45.2273 131.756 46.142 130.29 46.8125C128.824 47.483 126.994 47.8182 124.801 47.8182Z" fill="white"/>
</svg>
